<?xml version="1.0" encoding="utf-8"?>
<svg viewBox="116.691 77.788 292.579 280.307" xmlns="http://www.w3.org/2000/svg">
  <defs>
    <clipPath clipPathUnits="userSpaceOnUse" id="clipPath18">
      <path d="M 23.894,122.927 V 35.261 c 0,-4.134 3.382,-7.515 7.515,-7.515 v 0 h 95.181 c 4.133,0 7.515,3.381 7.515,7.515 v 0 87.666 z m 37.572,-15.028 c 0,2.768 2.242,5.01 5.01,5.01 v 0 h 25.048 c 2.767,0 5.01,-2.242 5.01,-5.01 v 0 c 0,-2.767 -2.243,-5.009 -5.01,-5.009 v 0 H 66.476 c -2.768,0 -5.01,2.242 -5.01,5.009" id="path16"/>
    </clipPath>
  </defs>
  <g id="g10" transform="matrix(1.333333, 0, 0, -1.288698, 84.830551, 236.205215)" style="">
    <g id="g12" style="" transform="matrix(1.991038, 0, 0, 2.285223, -23.680862, -157.989944)">
      <g id="g14" clip-path="url(#clipPath18)">
        <path d="M 23.895,122.928 H 134.106 V 27.746 H 23.895 Z" style="fill: rgb(238, 238, 238); fill-opacity: 1; fill-rule: nonzero; stroke: none; stroke-linejoin: round;" id="path20"/>
      </g>
    </g>
  </g>
  <g transform="matrix(0.1, 0, 0, -0.1, 106.165054, 358.004883)" fill="#000000" stroke="none">
    <path d="M390 2530 l0 -50 -55 0 -55 0 0 -105 0 -105 55 0 55 0 0 -375 0 -375 -55 0 -55 0 0 -155 0 -155 55 0 55 0 0 -425 0 -425 55 0 55 0 0 -55 0 -55 110 0 110 0 0 55 0 55 55 0 55 0 0 370 0 370 225 0 225 0 0 -55 0 -55 165 0 165 0 0 -50 0 -50 110 0 110 0 0 -55 0 -55 54 0 55 0 3 -52 3 -53 53 -3 52 -3 0 -50 0 -49 55 0 55 0 0 -55 0 -55 55 0 55 0 0 -50 0 -50 54 0 55 0 3 -52 3 -53 162 -3 162 -2 3 52 3 53 53 3 52 3 0 99 0 99 -52 3 -53 3 -3 53 -3 52 -55 0 -54 0 0 55 0 55 -55 0 -55 0 0 50 0 50 -55 0 -55 0 0 55 0 55 -55 0 -55 0 0 55 0 55 -55 0 -55 0 0 50 0 50 -110 0 -110 0 0 55 0 55 -55 0 -55 0 0 55 0 55 275 0 275 0 0 49 0 50 53 3 52 3 3 53 3 52 55 0 54 0 0 370 0 370 -55 0 -55 0 0 55 0 55 -55 0 -55 0 0 50 0 50 -995 0 -995 0 0 -50z m1770 -530 l0 -160 -275 0 -275 0 0 -55 0 -55 -220 0 -220 0 0 -50 0 -50 -170 0 -170 0 0 265 0 265 665 0 665 0 0 -160z"/>
  </g>
</svg>